<mxfile host="Electron" modified="2024-03-27T05:58:48.668Z" agent="Mozilla/5.0 (Windows NT 10.0; Win64; x64) AppleWebKit/537.36 (KHTML, like Gecko) draw.io/24.0.4 Chrome/120.0.6099.109 Electron/28.1.0 Safari/537.36" etag="Hw5RsWIz9ZxqSkaHksOj" version="24.0.4" type="device">
  <diagram name="Страница — 1" id="FRDzupxTOLquzutgX3_N">
    <mxGraphModel dx="525" dy="315" grid="1" gridSize="10" guides="1" tooltips="1" connect="1" arrows="1" fold="1" page="1" pageScale="1" pageWidth="827" pageHeight="1169" math="0" shadow="0">
      <root>
        <mxCell id="0" />
        <mxCell id="1" parent="0" />
        <mxCell id="YgddNVGVqHCcbd6I36w4-7" value="&lt;font&gt;&lt;b&gt;Kubernetes node&lt;/b&gt;&lt;/font&gt;" style="rounded=1;whiteSpace=wrap;html=1;strokeColor=#7C8A9A;absoluteArcSize=1;fillColor=#F6F7F9;verticalAlign=top;fontFamily=VK sans display;fontColor=#212121;" parent="1" vertex="1">
          <mxGeometry x="41" y="41" width="320" height="320" as="geometry" />
        </mxCell>
        <mxCell id="YgddNVGVqHCcbd6I36w4-6" value="&lt;font&gt;&lt;b&gt;Kubernetes node&lt;/b&gt;&lt;/font&gt;" style="rounded=1;whiteSpace=wrap;html=1;strokeColor=#7C8A9A;absoluteArcSize=1;fillColor=#F6F7F9;verticalAlign=top;fontFamily=VK sans display;fontColor=#212121;" parent="1" vertex="1">
          <mxGeometry x="80" y="79" width="320" height="320" as="geometry" />
        </mxCell>
        <mxCell id="YgddNVGVqHCcbd6I36w4-1" value="&lt;font&gt;&lt;b&gt;Kubernetes node&lt;/b&gt;&lt;/font&gt;" style="rounded=1;whiteSpace=wrap;html=1;strokeColor=#7C8A9A;absoluteArcSize=1;fillColor=#F6F7F9;verticalAlign=top;fontFamily=VK sans display;fontColor=#212121;" parent="1" vertex="1">
          <mxGeometry x="120" y="119" width="360" height="320" as="geometry" />
        </mxCell>
        <mxCell id="GdYyXfgeOynMq2BZmz0e-16" value="&lt;span style=&quot;font-family: &amp;quot;VK Sans Display&amp;quot;; font-size: 12px; font-style: normal; font-variant-ligatures: normal; font-variant-caps: normal; font-weight: 400; letter-spacing: normal; orphans: 2; text-indent: 0px; text-transform: none; widows: 2; word-spacing: 0px; -webkit-text-stroke-width: 0px; white-space: normal; background-color: rgb(251, 251, 251); text-decoration-thickness: initial; text-decoration-style: initial; text-decoration-color: initial; float: none; display: inline !important;&quot;&gt;Elasticsearch&lt;/span&gt;&lt;div&gt;&lt;span style=&quot;font-family: &amp;quot;VK Sans Display&amp;quot;; font-size: 12px; font-style: normal; font-variant-ligatures: normal; font-variant-caps: normal; font-weight: 400; letter-spacing: normal; orphans: 2; text-indent: 0px; text-transform: none; widows: 2; word-spacing: 0px; -webkit-text-stroke-width: 0px; white-space: normal; background-color: rgb(251, 251, 251); text-decoration-thickness: initial; text-decoration-style: initial; text-decoration-color: initial; float: none; display: inline !important;&quot;&gt;+&lt;/span&gt;&lt;span style=&quot;font-family: &amp;quot;VK Sans Display&amp;quot;;&quot;&gt;Kibana&lt;/span&gt;&lt;/div&gt;" style="text;whiteSpace=wrap;html=1;fontColor=#212121;align=center;" parent="1" vertex="1">
          <mxGeometry x="342" y="503" width="82" height="39" as="geometry" />
        </mxCell>
        <mxCell id="GdYyXfgeOynMq2BZmz0e-19" value="" style="endArrow=open;html=1;rounded=0;exitX=0.5;exitY=1;exitDx=0;exitDy=0;fontSize=2;strokeWidth=2;strokeColor=#7C8A9A;endFill=0;entryX=0.5;entryY=0;entryDx=0;entryDy=0;" parent="1" source="YgddNVGVqHCcbd6I36w4-12" target="YgddNVGVqHCcbd6I36w4-10" edge="1">
          <mxGeometry width="50" height="50" relative="1" as="geometry">
            <mxPoint x="377" y="388" as="sourcePoint" />
            <mxPoint x="377" y="462" as="targetPoint" />
          </mxGeometry>
        </mxCell>
        <mxCell id="mRmBRviCD1Tk34DAtK_0-1" value="" style="shape=image;imageAspect=0;aspect=fixed;verticalLabelPosition=bottom;verticalAlign=top;image=data:image/svg+xml,PHN2ZyB4bWxucz0iaHR0cDovL3d3dy53My5vcmcvMjAwMC9zdmciIGZpbGw9Im5vbmUiIHZpZXdCb3g9IjAgMCAyNiAyNCIgaGVpZ2h0PSIyNCIgd2lkdGg9IjI2Ij4mI3hhOzxwYXRoIGZpbGw9IiMyNjg4RUIiIGQ9Ik02LjAwMDE1IDcuNzk5OTNIMjAuMDAwMVY5Ljg5OTkzSDYuMDAwMTVWNy43OTk5M1oiLz4mI3hhOzxwYXRoIGZpbGw9IiMyNjg4RUIiIGQ9Ik0yMC4wMDAxIDE0LjA5OTlINi4wMDAxNVYxNi4xOTk5SDIwLjAwMDFWMTQuMDk5OVoiLz4mI3hhOzxwYXRoIGZpbGw9IiMyNjg4RUIiIGQ9Ik0wLjQwMDE0NiAwLjc5OTkyN1YyMy4xOTk5SDI1LjYwMDFWMC43OTk5MjdIMC40MDAxNDZaTTIzLjUwMDEgMi44OTk5M0gyLjUwMDE1VjIxLjA5OTlIMjMuNTAwMVYyLjg5OTkzWiIgY2xpcC1ydWxlPSJldmVub2RkIiBmaWxsLXJ1bGU9ImV2ZW5vZGQiLz4mI3hhOzwvc3ZnPg==;" parent="1" vertex="1">
          <mxGeometry x="203.25" y="329" width="43.33" height="40" as="geometry" />
        </mxCell>
        <mxCell id="mRmBRviCD1Tk34DAtK_0-2" value="Log-file.json" style="text;html=1;align=center;verticalAlign=middle;whiteSpace=wrap;rounded=0;fontFamily=VK sans display;" parent="1" vertex="1">
          <mxGeometry x="187" y="367" width="77" height="30" as="geometry" />
        </mxCell>
        <mxCell id="YgddNVGVqHCcbd6I36w4-10" value="" style="shape=image;imageAspect=0;aspect=fixed;verticalLabelPosition=bottom;verticalAlign=top;image=data:image/svg+xml,PHN2ZyB4bWxucz0iaHR0cDovL3d3dy53My5vcmcvMjAwMC9zdmciIGZpbGw9Im5vbmUiIHZpZXdCb3g9IjAgMCAxNDQgNjIiIGhlaWdodD0iNjIiIHdpZHRoPSIxNDQiPiYjeGE7PHJlY3QgZmlsbD0id2hpdGUiIGhlaWdodD0iNjAiIHdpZHRoPSIxNDIiIHk9IjEiIHg9IjEiLz4mI3hhOzxyZWN0IHN0cm9rZT0iI0U4RUFFRCIgaGVpZ2h0PSI2MCIgd2lkdGg9IjE0MiIgeT0iMSIgeD0iMSIvPiYjeGE7PHBhdGggZmlsbD0iIzAwNzdGRiIgZD0iTTIxLjcwMDkgMjMuOTc3NEMyMS44MzA1IDI0Ljk4MjcgMjIuMzE0MiAyNS44NzA1IDIzLjAyMDkgMjYuNTA2OUMyMi4zMTQyIDI3LjE0MzQgMjEuODMwNSAyOC4wMzExIDIxLjcwMDkgMjkuMDM2NUMyMS42NjY3IDI5LjMwMTggMjEuNjY2NyAyOS42MTc5IDIxLjY2NjcgMzAuMjVDMjEuNjY2NyAzMC44ODIxIDIxLjY2NjcgMzEuMTk4MiAyMS43MDA5IDMxLjQ2MzVDMjEuODMwNSAzMi40Njg5IDIyLjMxNDIgMzMuMzU2NiAyMy4wMjA5IDMzLjk5MzFDMjIuMzE0MiAzNC42Mjk1IDIxLjgzMDUgMzUuNTE3MyAyMS43MDA5IDM2LjUyMjZDMjEuNjY2NyAzNi43ODc5IDIxLjY2NjcgMzcuMTA0IDIxLjY2NjcgMzcuNzM2MUMyMS42NjY3IDM4LjM2ODIgMjEuNjY2NyAzOC42ODQzIDIxLjcwMDkgMzguOTQ5NkMyMS45MzcyIDQwLjc4MiAyMy4zNDk2IDQyLjIyMzggMjUuMTQ0NiA0Mi40NjUxQzI1LjQwNDUgNDIuNSAyNS43MTQxIDQyLjUgMjYuMzMzMyA0Mi41SDI2Ljk3OTJDMjcuNTQzIDQyLjUgMjggNDIuMDQzIDI4IDQxLjQ3OTJDMjggNDAuOTE1NCAyNy41NDMgNDAuNDU4MyAyNi45NzkyIDQwLjQ1ODNIMjYuMzMzM0MyNS42NTA1IDQwLjQ1ODMgMjUuNTAyOCA0MC40NTM5IDI1LjQwNTYgNDAuNDQwOUMyNC41MDgxIDQwLjMyMDMgMjMuODAxOSAzOS41OTkzIDIzLjY4MzggMzguNjgzMkMyMy42NzEgMzguNTgzOSAyMy42NjY3IDM4LjQzMzEgMjMuNjY2NyAzNy43MzYxQzIzLjY2NjcgMzcuMDM5MSAyMy42NzEgMzYuODg4MyAyMy42ODM4IDM2Ljc4OTFDMjMuODAxOSAzNS44NzI5IDI0LjUwODEgMzUuMTUyIDI1LjQwNTYgMzUuMDMxNEMyNS41MDI4IDM1LjAxODMgMjUuNjUwNSAzNS4wMTM5IDI2LjMzMzMgMzUuMDEzOUgyOUgzNEgzNi41OTQ0QzM5LjA4NTUgMzUuMDEzOSA0MC4xNzI2IDMzLjE3NjggNDAuMjk5MSAzMS40NjM1QzQwLjMzMzMgMzEgNDAuMzMzMyAzMC44ODIxIDQwLjMzMzMgMzAuMjVDNDAuMzMzMyAyOS42MTc5IDQwLjMzMzMgMjkuMzAxOCA0MC4yOTkxIDI5LjAzNjVDNDAuMTY5NCAyOC4wMzExIDM5LjY4NTggMjcuMTQzNCAzOC45NzkxIDI2LjUwNjlDMzkuNjg1OCAyNS44NzA1IDQwLjE2OTQgMjQuOTgyNyA0MC4yOTkxIDIzLjk3NzRDNDAuMzMzMyAyMy43MTIxIDQwLjMzMzMgMjMuMzk2IDQwLjMzMzMgMjIuNzYzOUM0MC4zMzMzIDIyLjEzMTggNDAuMzMzMyAyMS44MTU3IDQwLjI5OTEgMjEuNTUwNEM0MC4wNjI4IDE5LjcxOCAzOC42NTA0IDE4LjI3NjIgMzYuODU1NCAxOC4wMzQ5QzM2LjU5NTUgMTggMzYuMjg1OSAxOCAzNS42NjY3IDE4SDI2LjMzMzNDMjUuNzE0MSAxOCAyNS40MDQ1IDE4IDI1LjE0NDYgMTguMDM0OUMyMy4zNDk2IDE4LjI3NjIgMjEuOTM3MiAxOS43MTggMjEuNzAwOSAyMS41NTA0QzIxLjY2NjcgMjEuODE1NyAyMS42NjY3IDIyLjEzMTggMjEuNjY2NyAyMi43NjM5QzIxLjY2NjcgMjMuMzk2IDIxLjY2NjcgMjMuNzEyMSAyMS43MDA5IDIzLjk3NzRaTTM1LjY2NjcgMjAuMDQxN0gyNi4zMzMzQzI1LjY1MDUgMjAuMDQxNyAyNS41MDI4IDIwLjA0NjEgMjUuNDA1NiAyMC4wNTkxQzI0LjUwODEgMjAuMTc5NyAyMy44MDE5IDIwLjkwMDcgMjMuNjgzOCAyMS44MTY4QzIzLjY3MSAyMS45MTYxIDIzLjY2NjcgMjIuMDY2OSAyMy42NjY3IDIyLjc2MzlDMjMuNjY2NyAyMy40NjA5IDIzLjY3MSAyMy42MTE3IDIzLjY4MzggMjMuNzEwOUMyMy44MDE5IDI0LjYyNzEgMjQuNTA4MSAyNS4zNDggMjUuNDA1NiAyNS40Njg2QzI1LjUwMjggMjUuNDgxNyAyNS42NTA1IDI1LjQ4NjEgMjYuMzMzMyAyNS40ODYxSDM1LjY2NjdDMzYuMzQ5NSAyNS40ODYxIDM2LjQ5NzIgMjUuNDgxNyAzNi41OTQ0IDI1LjQ2ODZDMzcuNDkxOCAyNS4zNDggMzguMTk4MSAyNC42MjcxIDM4LjMxNjIgMjMuNzEwOUMzOC4zMjkgMjMuNjExNyAzOC4zMzMzIDIzLjQ2MDkgMzguMzMzMyAyMi43NjM5QzM4LjMzMzMgMjIuMDY2OSAzOC4zMjkgMjEuOTE2MSAzOC4zMTYyIDIxLjgxNjhDMzguMTk4MSAyMC45MDA3IDM3LjQ5MTggMjAuMTc5NyAzNi41OTQ0IDIwLjA1OTFDMzYuNDk3MiAyMC4wNDYxIDM2LjM0OTUgMjAuMDQxNyAzNS42NjY3IDIwLjA0MTdaTTM1LjY2NjcgMzIuOTcyMkMzNi4zNDk1IDMyLjk3MjIgMzYuNDk3MiAzMi45Njc4IDM2LjU5NDQgMzIuOTU0OEMzNy40OTE4IDMyLjgzNDEgMzguMTk4MSAzMi4xMTMyIDM4LjMxNjIgMzEuMTk3QzM4LjMyOSAzMS4wOTc4IDM4LjMzMzMgMzAuOTQ3IDM4LjMzMzMgMzAuMjVDMzguMzMzMyAyOS41NTMgMzguMzI5IDI5LjQwMjIgMzguMzE2MiAyOS4zMDNDMzguMTk4MSAyOC4zODY4IDM3LjQ5MTggMjcuNjY1OSAzNi41OTQ0IDI3LjU0NTJDMzYuNDk3MiAyNy41MzIyIDM2LjM0OTUgMjcuNTI3OCAzNS42NjY3IDI3LjUyNzhIMjYuMzMzM0MyNS42NTA1IDI3LjUyNzggMjUuNTAyOCAyNy41MzIyIDI1LjQwNTYgMjcuNTQ1MkMyNC41MDgxIDI3LjY2NTkgMjMuODAxOSAyOC4zODY4IDIzLjY4MzggMjkuMzAzQzIzLjY3MSAyOS40MDIyIDIzLjY2NjcgMjkuNTUzIDIzLjY2NjcgMzAuMjVDMjMuNjY2NyAzMC45NDcgMjMuNjcxIDMxLjA5NzggMjMuNjgzOCAzMS4xOTdDMjMuODAxOSAzMi4xMTMyIDI0LjUwODEgMzIuODM0MSAyNS40MDU2IDMyLjk1NDhDMjUuNTAyOCAzMi45Njc4IDI1LjY1MDUgMzIuOTcyMiAyNi4zMzMzIDMyLjk3MjJIMjlIMzUuNjY2N1pNMjkuNjgzMSAzNy4xNzM2QzI5Ljg1MDUgMzcuMDA4OCAzMC4wNjMyIDM2LjkyNjMgMzAuMjkzOCAzNi45MjYzSDMxLjgzNDZDMzIuMzY5NyAzNi45MjYzIDMyLjg2NzUgMzcuMDE2NSAzMy4zMjIgMzcuMjA0MkMzMy43NzY4IDM3LjM4NCAzNC4xNzQ5IDM3LjY0NTcgMzQuNTExOSAzNy45ODg3QzM0Ljg0OTEgMzguMzI2MyAzNS4xMDcyIDM4LjcyNDcgMzUuMjg2NCAzOS4xNzkxQzM1LjQ2NzIgMzkuNjM3NyAzNS41NTQ0IDQwLjEzNyAzNS41NTQ0IDQwLjY3MTdDMzUuNTU0NCA0MS4yMDY1IDM1LjQ2NzIgNDEuNzA3OSAzNS4yODcxIDQyLjE3MDlMMzUuMjg2NCA0Mi4xNzI4QzM1LjEwNzIgNDIuNjI3MiAzNC44NDk0IDQzLjAyNzcgMzQuNTEzMyA0My4zNzAyTDM0LjUxMDUgNDMuMzczMUMzNC4xNzM2IDQzLjcxIDMzLjc3NjQgNDMuOTcwNiAzMy4zMjM0IDQ0LjE1NTdMMzMuMzIwNiA0NC4xNTY4QzMyLjg2NjUgNDQuMzM4NSAzMi4zNjkyIDQ0LjQyNTYgMzEuODM0NiA0NC40MjU2SDMwLjI5MzhDMzAuMDYwOCA0NC40MjU2IDI5Ljg0NjEgNDQuMzQxNSAyOS42Nzc5IDQ0LjE3MzNDMjkuNTA5OCA0NC4wMDUxIDI5LjQyNTYgNDMuNzkwNCAyOS40MjU2IDQzLjU1NzRWMzcuNzk0NkMyOS40MjU2IDM3LjU2NDEgMjkuNTA0NiAzNy4zNDMgMjkuNjgzMSAzNy4xNzM2Wk00MS43ODM1IDQwLjMwNjNDNDEuOTMyOCA0MC40MDcgNDIuMDY4MSA0MC41Mjc1IDQyLjE4NzkgNDAuNjY4MkM0Mi40OTQ2IDQxLjAyODYgNDIuNjI5OSA0MS40ODMgNDIuNjI5OSA0MS45OTExQzQyLjYyOTkgNDIuNDUyNSA0Mi41MTg4IDQyLjg3NzQgNDIuMjg2MiA0My4yNTJDNDIuMDYyNiA0My42MjEzIDQxLjc0OTMgNDMuOTEwOCA0MS4zNTc5IDQ0LjEyTDQxLjM1MjggNDQuMTIyN0M0MC45NTQ4IDQ0LjMyODYgNDAuNTA4NiA0NC40MjU2IDQwLjAyNTEgNDQuNDI1NkgzNy44MTE5QzM3LjU3ODkgNDQuNDI1NiAzNy4zNjQyIDQ0LjM0MTUgMzcuMTk2IDQ0LjE3MzNDMzcuMDI3OCA0NC4wMDUxIDM2Ljk0MzcgNDMuNzkwNCAzNi45NDM3IDQzLjU1NzRWMzcuNzk0NkMzNi45NDM3IDM3LjU2NDEgMzcuMDIyNyAzNy4zNDMgMzcuMjAxMSAzNy4xNzM2QzM3LjM2ODUgMzcuMDA4OCAzNy41ODEyIDM2LjkyNjMgMzcuODExOSAzNi45MjYzSDM5Ljg0NjNDNDAuMjg3NSAzNi45MjYzIDQwLjY5NDMgMzcuMDEzOCA0MS4wNTQxIDM3LjIwMzNDNDEuNDEzIDM3LjM4MzcgNDEuNzAxOSAzNy42NDE5IDQxLjkwOTMgMzcuOTc2OUM0Mi4xMjYxIDM4LjMxNzcgNDIuMjI5OCAzOC43MDQyIDQyLjIyOTggMzkuMTIyNUM0Mi4yMjk4IDM5LjQ4MzYgNDIuMTI4OCAzOS44MTkgNDEuOTI3NyA0MC4xMTczTDQxLjc4MzUgNDAuMzA2M1pNMzEuMTYyMSAzOC41NjA3VjQyLjc5MTNIMzEuODM0NkMzMi4yNDQ0IDQyLjc5MTMgMzIuNTg3MSA0Mi42OTk0IDMyLjg3NjIgNDIuNTI3OUMzMy4xNzkzIDQyLjM0NTkgMzMuNDE1NiA0Mi4xMDA5IDMzLjU4OTQgNDEuNzg2NUMzMy43NjEgNDEuNDcwNyAzMy44NTIgNDEuMTAyNyAzMy44NTIgNDAuNjcxN0MzMy44NTIgNDAuMjMzNCAzMy43NjAzIDM5Ljg2NjQgMzMuNTkwMSAzOS41NThDMzMuNDE2NSAzOS4yNDM4IDMzLjE4MTEgMzkuMDAyMiAzMi44Nzk2IDM4LjgyNTlMMzIuODc3MSAzOC44MjQ1QzMyLjU4NzggMzguNjUyNyAzMi4yNDQ4IDM4LjU2MDcgMzEuODM0NiAzOC41NjA3SDMxLjE2MjFaTTM4LjY4MDIgMzguNTk0N1YzOS42NTg3SDM5Ljg0NjNDNDAuMDk5MyAzOS42NTg3IDQwLjI2NDEgMzkuNTk3NiA0MC4zNzY3IDM5LjUxTDQwLjM4MTEgMzkuNTA2NkM0MC40NjA0IDM5LjQ0NjYgNDAuNTI3MyAzOS4zNDY1IDQwLjUyNzMgMzkuMTIyNUM0MC41MjczIDM4Ljg5NzggNDAuNDYwNCAzOC44MDQ3IDQwLjM4NzEgMzguNzUxMkw0MC4zNzY2IDM4Ljc0MzZDNDAuMjY0IDM4LjY1NiA0MC4wOTkzIDM4LjU5NDcgMzkuODQ2MyAzOC41OTQ3SDM4LjY4MDJaTTM4LjY4MDIgNDEuMzI3MVY0Mi43NTcySDQwLjAyNTFDNDAuMjM2OCA0Mi43NTcyIDQwLjQwNDMgNDIuNzIwNSA0MC41Mzc2IDQyLjY1OTVDNDAuNjY1NyA0Mi42MDEgNDAuNzU3NyA0Mi41MjA0IDQwLjgyNTEgNDIuNDE1OEM0MC44ODQ0IDQyLjMyMzkgNDAuOTI3NCA0Mi4xOTA1IDQwLjkyNzQgNDEuOTkxMUM0MC45Mjc0IDQxLjgxMzQgNDAuODg2NyA0MS43MDQ1IDQwLjgzNjQgNDEuNjM0MUM0MC43NzQ3IDQxLjU0NzggNDAuNjg3IDQxLjQ3NjYgNDAuNTU2NSA0MS40MjQ0TDQwLjU0NjkgNDEuNDIwNUM0MC40MTExIDQxLjM2MjMgNDAuMjQwMiA0MS4zMjcxIDQwLjAyNTEgNDEuMzI3MUgzOC42ODAyWiIgY2xpcC1ydWxlPSJldmVub2RkIiBmaWxsLXJ1bGU9ImV2ZW5vZGQiLz4mI3hhOzwvc3ZnPg==;base64,PHN2ZyB4bWxucz0iaHR0cDovL3d3dy53My5vcmcvMjAwMC9zdmciIGZpbGw9Im5vbmUiIHZpZXdCb3g9IjAgMCAxNDQgNjIiIGhlaWdodD0iNjIiIHdpZHRoPSIxNDQiPiYjeGE7PHJlY3QgZmlsbD0id2hpdGUiIGhlaWdodD0iNjAiIHdpZHRoPSIxNDIiIHk9IjEiIHg9IjEiLz4mI3hhOzxyZWN0IHN0cm9rZT0iI0U4RUFFRCIgaGVpZ2h0PSI2MCIgd2lkdGg9IjE0MiIgeT0iMSIgeD0iMSIvPiYjeGE7PHBhdGggZmlsbD0iIzAwNzdGRiIgZD0iTTIxLjcwMDkgMjMuOTc3NEMyMS44MzA1IDI0Ljk4MjcgMjIuMzE0MiAyNS44NzA1IDIzLjAyMDkgMjYuNTA2OUMyMi4zMTQyIDI3LjE0MzQgMjEuODMwNSAyOC4wMzExIDIxLjcwMDkgMjkuMDM2NUMyMS42NjY3IDI5LjMwMTggMjEuNjY2NyAyOS42MTc5IDIxLjY2NjcgMzAuMjVDMjEuNjY2NyAzMC44ODIxIDIxLjY2NjcgMzEuMTk4MiAyMS43MDA5IDMxLjQ2MzVDMjEuODMwNSAzMi40Njg5IDIyLjMxNDIgMzMuMzU2NiAyMy4wMjA5IDMzLjk5MzFDMjIuMzE0MiAzNC42Mjk1IDIxLjgzMDUgMzUuNTE3MyAyMS43MDA5IDM2LjUyMjZDMjEuNjY2NyAzNi43ODc5IDIxLjY2NjcgMzcuMTA0IDIxLjY2NjcgMzcuNzM2MUMyMS42NjY3IDM4LjM2ODIgMjEuNjY2NyAzOC42ODQzIDIxLjcwMDkgMzguOTQ5NkMyMS45MzcyIDQwLjc4MiAyMy4zNDk2IDQyLjIyMzggMjUuMTQ0NiA0Mi40NjUxQzI1LjQwNDUgNDIuNSAyNS43MTQxIDQyLjUgMjYuMzMzMyA0Mi41SDI2Ljk3OTJDMjcuNTQzIDQyLjUgMjggNDIuMDQzIDI4IDQxLjQ3OTJDMjggNDAuOTE1NCAyNy41NDMgNDAuNDU4MyAyNi45NzkyIDQwLjQ1ODNIMjYuMzMzM0MyNS42NTA1IDQwLjQ1ODMgMjUuNTAyOCA0MC40NTM5IDI1LjQwNTYgNDAuNDQwOUMyNC41MDgxIDQwLjMyMDMgMjMuODAxOSAzOS41OTkzIDIzLjY4MzggMzguNjgzMkMyMy42NzEgMzguNTgzOSAyMy42NjY3IDM4LjQzMzEgMjMuNjY2NyAzNy43MzYxQzIzLjY2NjcgMzcuMDM5MSAyMy42NzEgMzYuODg4MyAyMy42ODM4IDM2Ljc4OTFDMjMuODAxOSAzNS44NzI5IDI0LjUwODEgMzUuMTUyIDI1LjQwNTYgMzUuMDMxNEMyNS41MDI4IDM1LjAxODMgMjUuNjUwNSAzNS4wMTM5IDI2LjMzMzMgMzUuMDEzOUgyOUgzNEgzNi41OTQ0QzM5LjA4NTUgMzUuMDEzOSA0MC4xNzI2IDMzLjE3NjggNDAuMjk5MSAzMS40NjM1QzQwLjMzMzMgMzEgNDAuMzMzMyAzMC44ODIxIDQwLjMzMzMgMzAuMjVDNDAuMzMzMyAyOS42MTc5IDQwLjMzMzMgMjkuMzAxOCA0MC4yOTkxIDI5LjAzNjVDNDAuMTY5NCAyOC4wMzExIDM5LjY4NTggMjcuMTQzNCAzOC45NzkxIDI2LjUwNjlDMzkuNjg1OCAyNS44NzA1IDQwLjE2OTQgMjQuOTgyNyA0MC4yOTkxIDIzLjk3NzRDNDAuMzMzMyAyMy43MTIxIDQwLjMzMzMgMjMuMzk2IDQwLjMzMzMgMjIuNzYzOUM0MC4zMzMzIDIyLjEzMTggNDAuMzMzMyAyMS44MTU3IDQwLjI5OTEgMjEuNTUwNEM0MC4wNjI4IDE5LjcxOCAzOC42NTA0IDE4LjI3NjIgMzYuODU1NCAxOC4wMzQ5QzM2LjU5NTUgMTggMzYuMjg1OSAxOCAzNS42NjY3IDE4SDI2LjMzMzNDMjUuNzE0MSAxOCAyNS40MDQ1IDE4IDI1LjE0NDYgMTguMDM0OUMyMy4zNDk2IDE4LjI3NjIgMjEuOTM3MiAxOS43MTggMjEuNzAwOSAyMS41NTA0QzIxLjY2NjcgMjEuODE1NyAyMS42NjY3IDIyLjEzMTggMjEuNjY2NyAyMi43NjM5QzIxLjY2NjcgMjMuMzk2IDIxLjY2NjcgMjMuNzEyMSAyMS43MDA5IDIzLjk3NzRaTTM1LjY2NjcgMjAuMDQxN0gyNi4zMzMzQzI1LjY1MDUgMjAuMDQxNyAyNS41MDI4IDIwLjA0NjEgMjUuNDA1NiAyMC4wNTkxQzI0LjUwODEgMjAuMTc5NyAyMy44MDE5IDIwLjkwMDcgMjMuNjgzOCAyMS44MTY4QzIzLjY3MSAyMS45MTYxIDIzLjY2NjcgMjIuMDY2OSAyMy42NjY3IDIyLjc2MzlDMjMuNjY2NyAyMy40NjA5IDIzLjY3MSAyMy42MTE3IDIzLjY4MzggMjMuNzEwOUMyMy44MDE5IDI0LjYyNzEgMjQuNTA4MSAyNS4zNDggMjUuNDA1NiAyNS40Njg2QzI1LjUwMjggMjUuNDgxNyAyNS42NTA1IDI1LjQ4NjEgMjYuMzMzMyAyNS40ODYxSDM1LjY2NjdDMzYuMzQ5NSAyNS40ODYxIDM2LjQ5NzIgMjUuNDgxNyAzNi41OTQ0IDI1LjQ2ODZDMzcuNDkxOCAyNS4zNDggMzguMTk4MSAyNC42MjcxIDM4LjMxNjIgMjMuNzEwOUMzOC4zMjkgMjMuNjExNyAzOC4zMzMzIDIzLjQ2MDkgMzguMzMzMyAyMi43NjM5QzM4LjMzMzMgMjIuMDY2OSAzOC4zMjkgMjEuOTE2MSAzOC4zMTYyIDIxLjgxNjhDMzguMTk4MSAyMC45MDA3IDM3LjQ5MTggMjAuMTc5NyAzNi41OTQ0IDIwLjA1OTFDMzYuNDk3MiAyMC4wNDYxIDM2LjM0OTUgMjAuMDQxNyAzNS42NjY3IDIwLjA0MTdaTTM1LjY2NjcgMzIuOTcyMkMzNi4zNDk1IDMyLjk3MjIgMzYuNDk3MiAzMi45Njc4IDM2LjU5NDQgMzIuOTU0OEMzNy40OTE4IDMyLjgzNDEgMzguMTk4MSAzMi4xMTMyIDM4LjMxNjIgMzEuMTk3QzM4LjMyOSAzMS4wOTc4IDM4LjMzMzMgMzAuOTQ3IDM4LjMzMzMgMzAuMjVDMzguMzMzMyAyOS41NTMgMzguMzI5IDI5LjQwMjIgMzguMzE2MiAyOS4zMDNDMzguMTk4MSAyOC4zODY4IDM3LjQ5MTggMjcuNjY1OSAzNi41OTQ0IDI3LjU0NTJDMzYuNDk3MiAyNy41MzIyIDM2LjM0OTUgMjcuNTI3OCAzNS42NjY3IDI3LjUyNzhIMjYuMzMzM0MyNS42NTA1IDI3LjUyNzggMjUuNTAyOCAyNy41MzIyIDI1LjQwNTYgMjcuNTQ1MkMyNC41MDgxIDI3LjY2NTkgMjMuODAxOSAyOC4zODY4IDIzLjY4MzggMjkuMzAzQzIzLjY3MSAyOS40MDIyIDIzLjY2NjcgMjkuNTUzIDIzLjY2NjcgMzAuMjVDMjMuNjY2NyAzMC45NDcgMjMuNjcxIDMxLjA5NzggMjMuNjgzOCAzMS4xOTdDMjMuODAxOSAzMi4xMTMyIDI0LjUwODEgMzIuODM0MSAyNS40MDU2IDMyLjk1NDhDMjUuNTAyOCAzMi45Njc4IDI1LjY1MDUgMzIuOTcyMiAyNi4zMzMzIDMyLjk3MjJIMjlIMzUuNjY2N1pNMjkuNjgzMSAzNy4xNzM2QzI5Ljg1MDUgMzcuMDA4OCAzMC4wNjMyIDM2LjkyNjMgMzAuMjkzOCAzNi45MjYzSDMxLjgzNDZDMzIuMzY5NyAzNi45MjYzIDMyLjg2NzUgMzcuMDE2NSAzMy4zMjIgMzcuMjA0MkMzMy43NzY4IDM3LjM4NCAzNC4xNzQ5IDM3LjY0NTcgMzQuNTExOSAzNy45ODg3QzM0Ljg0OTEgMzguMzI2MyAzNS4xMDcyIDM4LjcyNDcgMzUuMjg2NCAzOS4xNzkxQzM1LjQ2NzIgMzkuNjM3NyAzNS41NTQ0IDQwLjEzNyAzNS41NTQ0IDQwLjY3MTdDMzUuNTU0NCA0MS4yMDY1IDM1LjQ2NzIgNDEuNzA3OSAzNS4yODcxIDQyLjE3MDlMMzUuMjg2NCA0Mi4xNzI4QzM1LjEwNzIgNDIuNjI3MiAzNC44NDk0IDQzLjAyNzcgMzQuNTEzMyA0My4zNzAyTDM0LjUxMDUgNDMuMzczMUMzNC4xNzM2IDQzLjcxIDMzLjc3NjQgNDMuOTcwNiAzMy4zMjM0IDQ0LjE1NTdMMzMuMzIwNiA0NC4xNTY4QzMyLjg2NjUgNDQuMzM4NSAzMi4zNjkyIDQ0LjQyNTYgMzEuODM0NiA0NC40MjU2SDMwLjI5MzhDMzAuMDYwOCA0NC40MjU2IDI5Ljg0NjEgNDQuMzQxNSAyOS42Nzc5IDQ0LjE3MzNDMjkuNTA5OCA0NC4wMDUxIDI5LjQyNTYgNDMuNzkwNCAyOS40MjU2IDQzLjU1NzRWMzcuNzk0NkMyOS40MjU2IDM3LjU2NDEgMjkuNTA0NiAzNy4zNDMgMjkuNjgzMSAzNy4xNzM2Wk00MS43ODM1IDQwLjMwNjNDNDEuOTMyOCA0MC40MDcgNDIuMDY4MSA0MC41Mjc1IDQyLjE4NzkgNDAuNjY4MkM0Mi40OTQ2IDQxLjAyODYgNDIuNjI5OSA0MS40ODMgNDIuNjI5OSA0MS45OTExQzQyLjYyOTkgNDIuNDUyNSA0Mi41MTg4IDQyLjg3NzQgNDIuMjg2MiA0My4yNTJDNDIuMDYyNiA0My42MjEzIDQxLjc0OTMgNDMuOTEwOCA0MS4zNTc5IDQ0LjEyTDQxLjM1MjggNDQuMTIyN0M0MC45NTQ4IDQ0LjMyODYgNDAuNTA4NiA0NC40MjU2IDQwLjAyNTEgNDQuNDI1NkgzNy44MTE5QzM3LjU3ODkgNDQuNDI1NiAzNy4zNjQyIDQ0LjM0MTUgMzcuMTk2IDQ0LjE3MzNDMzcuMDI3OCA0NC4wMDUxIDM2Ljk0MzcgNDMuNzkwNCAzNi45NDM3IDQzLjU1NzRWMzcuNzk0NkMzNi45NDM3IDM3LjU2NDEgMzcuMDIyNyAzNy4zNDMgMzcuMjAxMSAzNy4xNzM2QzM3LjM2ODUgMzcuMDA4OCAzNy41ODEyIDM2LjkyNjMgMzcuODExOSAzNi45MjYzSDM5Ljg0NjNDNDAuMjg3NSAzNi45MjYzIDQwLjY5NDMgMzcuMDEzOCA0MS4wNTQxIDM3LjIwMzNDNDEuNDEzIDM3LjM4MzcgNDEuNzAxOSAzNy42NDE5IDQxLjkwOTMgMzcuOTc2OUM0Mi4xMjYxIDM4LjMxNzcgNDIuMjI5OCAzOC43MDQyIDQyLjIyOTggMzkuMTIyNUM0Mi4yMjk4IDM5LjQ4MzYgNDIuMTI4OCAzOS44MTkgNDEuOTI3NyA0MC4xMTczTDQxLjc4MzUgNDAuMzA2M1pNMzEuMTYyMSAzOC41NjA3VjQyLjc5MTNIMzEuODM0NkMzMi4yNDQ0IDQyLjc5MTMgMzIuNTg3MSA0Mi42OTk0IDMyLjg3NjIgNDIuNTI3OUMzMy4xNzkzIDQyLjM0NTkgMzMuNDE1NiA0Mi4xMDA5IDMzLjU4OTQgNDEuNzg2NUMzMy43NjEgNDEuNDcwNyAzMy44NTIgNDEuMTAyNyAzMy44NTIgNDAuNjcxN0MzMy44NTIgNDAuMjMzNCAzMy43NjAzIDM5Ljg2NjQgMzMuNTkwMSAzOS41NThDMzMuNDE2NSAzOS4yNDM4IDMzLjE4MTEgMzkuMDAyMiAzMi44Nzk2IDM4LjgyNTlMMzIuODc3MSAzOC44MjQ1QzMyLjU4NzggMzguNjUyNyAzMi4yNDQ4IDM4LjU2MDcgMzEuODM0NiAzOC41NjA3SDMxLjE2MjFaTTM4LjY4MDIgMzguNTk0N1YzOS42NTg3SDM5Ljg0NjNDNDAuMDk5MyAzOS42NTg3IDQwLjI2NDEgMzkuNTk3NiA0MC4zNzY3IDM5LjUxTDQwLjM4MTEgMzkuNTA2NkM0MC40NjA0IDM5LjQ0NjYgNDAuNTI3MyAzOS4zNDY1IDQwLjUyNzMgMzkuMTIyNUM0MC41MjczIDM4Ljg5NzggNDAuNDYwNCAzOC44MDQ3IDQwLjM4NzEgMzguNzUxMkw0MC4zNzY2IDM4Ljc0MzZDNDAuMjY0IDM4LjY1NiA0MC4wOTkzIDM4LjU5NDcgMzkuODQ2MyAzOC41OTQ3SDM4LjY4MDJaTTM4LjY4MDIgNDEuMzI3MVY0Mi43NTcySDQwLjAyNTFDNDAuMjM2OCA0Mi43NTcyIDQwLjQwNDMgNDIuNzIwNSA0MC41Mzc2IDQyLjY1OTVDNDAuNjY1NyA0Mi42MDEgNDAuNzU3NyA0Mi41MjA0IDQwLjgyNTEgNDIuNDE1OEM0MC44ODQ0IDQyLjMyMzkgNDAuOTI3NCA0Mi4xOTA1IDQwLjkyNzQgNDEuOTkxMUM0MC45Mjc0IDQxLjgxMzQgNDAuODg2NyA0MS43MDQ1IDQwLjgzNjQgNDEuNjM0MUM0MC43NzQ3IDQxLjU0NzggNDAuNjg3IDQxLjQ3NjYgNDAuNTU2NSA0MS40MjQ0TDQwLjU0NjkgNDEuNDIwNUM0MC40MTExIDQxLjM2MjMgNDAuMjQwMiA0MS4zMjcxIDQwLjAyNTEgNDEuMzI3MUgzOC42ODAyWiIgY2xpcC1ydWxlPSJldmVub2RkIiBmaWxsLXJ1bGU9ImV2ZW5vZGQiLz4mI3hhOzwvc3ZnPg==;clipPath=inset(22.58% 66.67% 20.97% 10.42%);" parent="1" vertex="1">
          <mxGeometry x="363" y="463" width="38.66" height="41" as="geometry" />
        </mxCell>
        <mxCell id="YgddNVGVqHCcbd6I36w4-12" value="&lt;font&gt;Logging agent pod&lt;/font&gt;" style="rounded=1;whiteSpace=wrap;html=1;absoluteArcSize=1;fillColor=#FFFFFF;strokeColor=#E3E8F2;strokeWidth=4;fontFamily=VK sans display;fontColor=#212121;verticalAlign=top;" parent="1" vertex="1">
          <mxGeometry x="317" y="309" width="130" height="80" as="geometry" />
        </mxCell>
        <mxCell id="YgddNVGVqHCcbd6I36w4-13" value="Logging agent" style="rounded=1;whiteSpace=wrap;html=1;absoluteArcSize=1;strokeColor=none;fillColor=#F6F7F9;verticalAlign=middle;fontFamily=VK sans display;fontColor=#212121;" parent="1" vertex="1">
          <mxGeometry x="333" y="335" width="100" height="40" as="geometry" />
        </mxCell>
        <mxCell id="YgddNVGVqHCcbd6I36w4-14" value="&lt;font&gt;App pod&lt;/font&gt;" style="rounded=1;whiteSpace=wrap;html=1;absoluteArcSize=1;fillColor=#FFFFFF;strokeColor=#E3E8F2;strokeWidth=4;fontFamily=VK sans display;fontColor=#212121;verticalAlign=top;" parent="1" vertex="1">
          <mxGeometry x="160" y="164" width="130" height="80" as="geometry" />
        </mxCell>
        <mxCell id="YgddNVGVqHCcbd6I36w4-15" value="App container" style="rounded=1;whiteSpace=wrap;html=1;absoluteArcSize=1;strokeColor=none;fillColor=#F6F7F9;verticalAlign=middle;fontFamily=VK sans display;fontColor=#212121;" parent="1" vertex="1">
          <mxGeometry x="175" y="191" width="100" height="40" as="geometry" />
        </mxCell>
        <mxCell id="YgddNVGVqHCcbd6I36w4-17" value="" style="endArrow=open;html=1;rounded=0;exitX=0.5;exitY=1;exitDx=0;exitDy=0;fontSize=2;strokeWidth=2;strokeColor=#7C8A9A;endFill=0;entryX=0.5;entryY=0;entryDx=0;entryDy=0;" parent="1" target="mRmBRviCD1Tk34DAtK_0-1" edge="1">
          <mxGeometry width="50" height="50" relative="1" as="geometry">
            <mxPoint x="225" y="246" as="sourcePoint" />
            <mxPoint x="225" y="327" as="targetPoint" />
          </mxGeometry>
        </mxCell>
        <mxCell id="YgddNVGVqHCcbd6I36w4-18" value="" style="endArrow=open;html=1;rounded=0;exitX=1;exitY=0.5;exitDx=0;exitDy=0;fontSize=2;strokeWidth=2;strokeColor=#7C8A9A;endFill=0;entryX=0;entryY=0.5;entryDx=0;entryDy=0;" parent="1" source="mRmBRviCD1Tk34DAtK_0-1" target="YgddNVGVqHCcbd6I36w4-12" edge="1">
          <mxGeometry width="50" height="50" relative="1" as="geometry">
            <mxPoint x="330" y="270" as="sourcePoint" />
            <mxPoint x="338" y="354" as="targetPoint" />
          </mxGeometry>
        </mxCell>
      </root>
    </mxGraphModel>
  </diagram>
</mxfile>
